<svg width="147" height="113" viewBox="0 0 147 113" fill="none" xmlns="http://www.w3.org/2000/svg">
<path d="M19.6855 24.1832C21.0748 26.6422 21.8249 27.9255 22.493 28.8908C23.431 30.2458 24.6067 31.2437 25.6242 32.4234C26.655 33.6186 27.0705 34.4592 27.7137 35.3691C28.2651 36.1489 28.8372 37.1864 29.507 38.1798C30.1603 39.1489 30.4434 40.026 30.7935 41.0435C30.9775 41.5783 31.142 42.0626 31.0633 42.1188C29.6859 43.1027 29.7527 39.7144 29.4307 38.8021C29.079 37.8059 28.4678 36.9294 26.7597 35.0591C25.5122 33.6931 25.2556 32.5929 24.7199 31.842C24.0116 30.849 24.0767 29.1686 24.1016 26.6832C24.1084 26.0047 24.3401 25.4264 24.5545 25.126C24.7689 24.8257 25.0339 24.8257 25.303 24.9052C25.572 24.9847 25.837 25.1437 26 25.3316C26.6293 26.057 26.9099 28.5551 27.3668 30.6021C27.6735 31.9759 27.7676 33.4891 28.4357 35.0446C29.5122 37.5508 29.9101 38.7411 30.4442 39.7321C31.138 41.0195 32.0495 42.5958 32.3209 43.5876C32.3664 43.754 31.8985 43.6719 31.6022 43.5121C30.4165 42.8727 30.0739 41.6418 29.405 40.7295C28.873 40.004 28.4678 39.178 27.5861 37.8409C26.7319 36.5456 26.2739 35.7505 25.7374 34.921C25.3648 34.4142 25.0404 33.9292 24.8002 33.5284C24.6661 33.3397 24.5071 33.1807 24.3433 32.5351" stroke="white" stroke-width="5" stroke-linecap="round"/>
<path d="M81.3606 2.50061C79.6646 8.43683 78.7908 11.9189 78.4728 13.8069C77.797 17.8189 76.8635 21.3886 76.943 23.1272C77.0154 24.71 78.1452 25.889 78.9217 26.9104C79.095 27.1383 79.2695 27.3377 79.5104 27.0494C80.2921 26.114 80.609 24.1399 80.9567 21.501C81.4613 17.6716 81.306 14.7666 81.4666 13.7242C81.7441 11.9232 82.7483 9.78919 83.1531 8.7677C83.4872 7.92433 83.5016 7.16158 83.6084 6.54723C83.66 6.25051 83.7152 5.9859 83.7425 6.4589C83.84 8.14835 83.7168 9.88395 83.6365 12.1173C83.4648 16.8917 83.5562 20.2723 83.4759 21.1509C83.2243 23.9031 82.864 25.0859 82.4062 26.1604C82.2729 26.4286 82.0609 26.7466 81.9252 27.0164C81.7895 27.2863 81.7365 27.4983 81.6819 27.7167" stroke="white" stroke-width="5" stroke-linecap="round"/>
<path d="M119.747 47.1508C119.96 46.8874 120.598 44.2245 121.164 42.6304C121.528 41.6074 121.78 40.6235 122.314 39.6864C122.991 38.4981 123.492 37.7325 124.081 36.7954C125.023 35.2963 125.635 33.7172 126.062 32.8065C126.625 31.6077 127.292 30.8262 127.909 30.0753C128.572 29.2686 129.059 28.205 129.836 27.2646C130.512 26.4462 131.68 25.7926 132.62 25.6015C134.99 25.1194 129.551 32.5255 128.744 33.8963C127.656 35.7435 125.265 38.2593 124.434 39.5169C123.628 40.7371 122.429 42.432 121.57 43.7201C121.008 44.5628 120.392 45.5383 120.176 46.7718C120.088 47.2715 119.854 47.737 120.039 48.1386C120.365 48.847 121.724 48.0101 122.392 47.5026C123.39 46.7448 123.92 45.4451 124.535 44.3176C125.387 42.7595 126.486 41.327 127.8 38.9941C128.525 37.7067 129.114 36.3962 129.809 35.4293C130.417 34.5845 131.147 33.6112 131.657 32.5391C132.326 31.308 132.809 30.1821 132.969 29.5951C133.076 29.2731 133.235 28.9021 133.559 28.3592" stroke="white" stroke-width="5" stroke-linecap="round"/>
<path d="M144.32 85.3765C143.68 84.2554 143.039 83.2917 142.369 82.4887C141.458 81.3969 140.469 80.1341 139.586 79.5165C138.334 78.6404 137.315 77.6189 136.026 76.7596C134.987 76.0664 133.778 75.3671 131.987 74.0854C130.795 73.2323 129.711 72.3701 128.771 71.8601C127.899 71.3877 126.502 70.3913 125.371 69.8252C124.245 69.261 121.954 68.3034 120.714 67.8175C119.797 67.4585 118.79 66.9093 117.156 65.9994C116.057 65.387 115.041 64.6607 114.129 64.2841C113.066 63.8456 111.617 63.1092 110.516 62.6779C109.131 62.1355 107.232 61.4485 104.766 60.4591C102.323 59.4791 100.856 59.0907 99.7016 58.69C96.7267 57.6569 92.4491 57.2179 90.419 56.9754C86.7948 56.5425 85.5974 56.6815 82.0977 56.5739C79.6364 56.4982 78.2639 56.1997 75.9888 56.092C75.4208 56.0652 74.9456 55.933 71.7053 55.8784C68.4649 55.8238 62.4757 55.8238 58.9663 55.8768C53.3523 55.9616 52.0809 56.5723 51.0088 56.8935C48.6849 57.5898 44.8533 58.1238 43.9145 58.3928C42.5904 58.7723 39.8326 59.9933 37.4933 60.6671C36.1191 61.0629 34.7894 61.7633 32.8636 62.2467C31.0443 62.7034 30.183 62.9968 29.192 63.2377C28.0383 63.5182 26.1195 63.8512 24.6957 64.2014C23.4447 64.509 22.101 65.1907 19.5344 66.5262C18.3794 67.1272 17.3886 67.7059 16.2097 68.3492C15.1766 68.9129 14.0158 69.4726 13.077 70.0356C11.9672 70.7011 11.2308 71.294 10.3731 71.8826C9.41782 72.5383 8.23375 73.1667 7.32147 73.6502C6.41112 74.1326 5.44874 74.8789 4.75088 75.6032C4.02212 76.3596 3.46678 77.606 3.27646 78.654C3.233 78.8933 3.19695 79.1608 3.27565 79.3768C3.67095 80.4618 4.90587 81.4093 5.81574 82.4284C6.45249 83.1416 7.42105 83.3399 8.70435 83.9815C10.5072 84.883 11.4364 85.6945 12.453 86.4172C14.1369 87.6143 15.2364 88.3189 15.9889 88.9075C16.7988 89.5411 18.6029 90.9336 19.8155 92.0122C21.0655 93.1239 22.2488 93.9371 23.3225 94.6896C24.8859 95.7852 27.443 97.3132 28.2219 97.8753C29.1447 98.5412 30.3886 98.9739 31.7249 99.6139C33.9555 100.682 35.2584 101.489 37.9847 102.851C39.9893 103.852 42.2193 105.077 43.9314 105.691C45.1053 106.113 46.6072 106.629 48.8237 107.376C53.7568 109.04 55.0136 108.986 56.7523 109.28C57.9939 109.489 59.7212 109.68 62.1215 110.055C65.2377 110.54 67.914 110.22 71.2395 109.872C73.7072 109.614 77.7981 109.684 80.5895 109.55C83.381 109.417 84.759 109.205 86.582 109.069C90.6242 108.768 93.1365 108.72 94.0408 108.48C95.859 107.997 98.2665 108.023 100.245 107.97C103.229 107.89 106.41 106.953 107.749 106.446C109.468 105.794 111.228 105.402 112.461 104.813C113.394 104.368 114.44 103.693 115.46 103.019C116.531 102.312 118.076 101.656 119.608 101.118L119.637 101.108C121.097 100.595 123.118 99.8848 124.828 99.1915C126.556 98.4909 128.947 97.159 129.889 96.4611C130.708 95.855 131.786 95.3376 132.913 94.4013C134.583 93.0136 136.393 90.6285 137.117 89.876C137.905 89.0576 139.123 88.5919 139.981 87.9487C140.785 87.2524 141.532 86.504 142.39 85.8872C142.605 85.7523 142.817 85.6463 143.036 85.5371M2.5 78.6308C2.5 78.5248 5.94513 78.4702 11.43 78.4172C15.6673 78.3763 18.4488 78.043 19.5201 77.9354C19.8961 77.8976 20.4243 77.7764 22.6319 77.7218C24.8395 77.6671 28.7087 77.6671 31.0729 77.7466C35.7311 77.9033 37.6162 78.952 39.1653 79.405C41.7243 80.1532 43.6071 80.1823 45.1369 80.5036C46.6939 80.8305 47.9982 80.8794 52.7266 81.4126C54.957 81.6641 58.2645 81.8431 62.2228 81.9764C64.5578 82.055 68.9581 82.0037 71.4628 82.0302C76.2098 82.0804 79.4268 82.2703 81.2457 82.3779C82.3753 82.4447 83.2317 82.6461 84.3488 82.7521C85.2035 82.8332 86.6319 83.0701 91.5032 83.1794C96.3746 83.2886 104.643 83.2886 109.061 83.3151C114.816 83.3496 116.743 83.5552 118.989 83.6363C120.179 83.6793 121.241 83.9824 122.577 84.1976C125.641 84.6911 126.595 84.8401 128.013 84.9212C129.12 84.9846 130.392 85.2673 132.161 85.403C133.302 85.4905 135.522 85.6978 137.223 85.9644C137.678 86.019 138.161 86.072 138.775 86.1523C139.123 86.1796 139.547 86.1796 139.984 86.1796M48.1138 82.4855C48.4318 83.6563 49.7135 86.0093 50.3872 87.1665C50.9522 88.1368 51.75 88.8521 54.205 90.508C57.4647 92.7068 58.6017 93.6159 59.8055 94.4206C62.1493 95.9872 63.2595 96.5615 65.3715 97.7396C66.4062 98.3167 67.5414 98.3861 68.9612 98.786C70.8017 99.3044 73.1114 99.3498 74.9786 99.4831C79.099 99.7772 81.6624 98.7651 84.4844 97.934C85.7667 97.5563 86.6029 96.8346 88.0468 96.0074C89.3925 95.2365 90.4576 94.6952 91.5818 94.0785C92.4575 93.5981 93.188 93.0345 94.2303 92.2868C96.5357 90.6333 97.5245 90.0921 98.1693 89.1011C98.683 88.3118 98.7066 87.1496 98.5741 86.0535C98.5166 85.5781 98.1766 85.3283 97.9075 85.1653C97.6385 85.0023 97.3735 84.9493 92.8908 84.8955C88.4081 84.8417 79.7158 84.7887 75.0259 84.7348C69.2613 84.6687 67.0307 84.1494 65.2503 83.878C63.8476 83.6641 62.5753 83.5038 60.8889 83.4226C59.4101 83.3515 57.9175 83.1825 53.2164 83.3929C52.4035 83.4293 52.7651 84.188 53.0084 84.673C53.7575 86.1662 54.6924 86.9248 56.0327 87.8893C56.8658 88.4887 57.5321 89.122 58.3897 89.6841C59.2239 90.2309 60.2079 90.8341 61.2269 91.2107C61.9505 91.4782 62.946 91.9707 64.1059 92.4978M64.1059 92.4978C64.7113 92.773 65.3616 93.0575 66.0413 93.3244C67.5869 93.9312 71.7944 95.0036 74.7433 95.4421C76.0105 95.6305 76.8055 94.586 78.0358 93.9186C79.4897 93.13 82.3563 92.6105 84.3543 92.2033C85.379 91.9945 86.4936 91.589 87.7536 90.9738C88.8709 90.4284 89.5485 89.8768 91.2044 88.9935C92.5004 88.3021 93.7758 88.2161 94.5026 88.0531C96.0194 87.7129 88.1897 91.7817 85.9419 93.1108C84.714 93.8368 83.8275 94.4222 81.6905 95.4107C80.0611 96.1645 78.7425 96.2981 77.1637 96.698C76.1402 96.9573 75.0484 97.0466 71.5511 96.9687C68.4135 96.8988 66.0682 94.4163 64.1059 92.4978ZM64.1059 92.4978C63.9873 92.3818 63.8701 92.2679 63.7542 92.1567C63.1355 91.5633 62.068 90.3306 60.757 88.8158M60.757 88.8158C60.5831 88.615 60.405 88.4092 60.2231 88.1992C59.7211 87.6199 60.0472 87.5191 61.0318 87.4918C61.9483 87.4663 62.7316 87.4437 63.4089 87.4228M60.757 88.8158C61.1869 88.9947 61.6612 89.1858 62.2011 89.3942C64.3003 90.2045 66.942 91.7487 70.255 91.748C77.6728 91.7464 78.8737 91.5075 79.8917 91.1304C80.8305 90.7827 91.9677 88.7492 88.2901 87.4082C87.5633 87.1432 86.5491 87.0381 83.4749 87.0091C80.6666 86.9826 75.4716 86.9379 72.7115 87.0099L72.4228 87.0174C69.591 87.0913 68.963 87.1076 68.3188 87.1705C67.2172 87.2781 66.2384 87.3355 63.4089 87.4228M60.757 88.8158C59.2971 88.2084 58.349 87.7427 57.0872 87.2259C56.7383 87.0831 56.5234 87.0372 56.5467 86.9834C56.8811 86.2107 58.3351 86.928 59.2193 87.0091C59.9697 87.078 61.2854 87.275 63.4089 87.4228M63.4089 87.4228C64.3063 87.4853 65.3479 87.539 66.552 87.5705C68.9114 87.6321 71.8779 87.8885 73.513 88.0242C75.148 88.1599 75.36 88.2129 77.4303 88.2402C79.5006 88.2675 83.4227 88.2675 87.4637 88.2675" stroke="white" stroke-width="5" stroke-linecap="round"/>
</svg>
